<?xml version="1.0" encoding="utf-8"?>
<!-- Generator: Adobe Illustrator 29.7.0, SVG Export Plug-In . SVG Version: 9.03 Build 0)  -->
<svg version="1.0" id="Warstwa_1" xmlns="http://www.w3.org/2000/svg" xmlns:xlink="http://www.w3.org/1999/xlink" x="0px" y="0px"
	 viewBox="0 0 140 70" style="enable-background:new 0 0 140 70;" xml:space="preserve">
<style type="text/css">
	.st0{fill:#183A68;}
	.st1{fill:#2699D6;}
</style>
<g>
	<g transform="translate(61.434398, 39.83168)">
	</g>
</g>
<path class="st0" d="M64.23,62.45c-0.73,0.89-1.43,1.6-2.19,2.13c-2.16,1.54-4.35,2.49-6.73,2.25c-1.72-0.18-3.36-0.71-4.83-2.25
	c-1.72-1.78-2.67-4.33-3.22-7.41c-0.37-2.13-0.51-4.39-0.51-6.64c0-9.3,0-18.61,0-27.91c0-0.41,0.07-0.53,0.33-0.53
	c1.9,0,3.8,0,5.67,0c0.29,0,0.33,0.12,0.33,0.53c0,9.19,0,18.31,0,27.5c0,1.54,0.15,3.08,0.55,4.5c0.58,2.01,1.65,3.14,2.96,3.44
	c2.45,0.59,4.61-0.59,6.43-3.26c0.4-0.59,0.73-1.3,0.99-2.01c0.11-0.3,0.15-0.65,0.15-1.01c0-9.66,0-19.38,0-29.04
	c0-0.77-0.04-0.65,0.4-0.65c1.86,0,3.73,0,5.59,0c0.26,0,0.33,0.06,0.33,0.53c0,14.28,0,28.56,0,42.9c0,0.41-0.07,0.59-0.33,0.53
	c-1.9,0-3.77,0-5.67,0c-0.26,0-0.37-0.12-0.33-0.53C64.23,64.59,64.23,63.58,64.23,62.45"/>
<path class="st0" d="M3.29,6.33c0-0.41,0.07-0.53,0.33-0.65c1.9-0.71,3.8-1.42,5.7-2.19c0.29-0.12,0.33,0,0.33,0.41
	c0,10.43-0.04,43.61,0,49.84c0,2.07,0.22,4.15,0.91,5.99c0.44,1.19,1.06,2.01,1.83,2.55c0.18,0.12,0.22,0.24,0.11,0.47
	c-0.88,2.37-2.16,3.73-3.84,4.03c-0.8,0.18-1.61,0.18-2.38-0.18c-1.13-0.47-1.86-1.72-2.34-3.44c-0.37-1.36-0.55-2.73-0.58-4.21
	C3.26,52.14,3.29,14.93,3.29,6.33"/>
<path class="st0" d="M94.47,56.05c-0.91,1.07-1.97,1.84-3.07,2.01c-1.86,0.36-3.66-0.12-5.3-1.6c-1.54-1.36-2.52-3.56-2.96-6.22
	c-0.73-4.56-0.73-9.13,0.44-13.51c0.91-3.56,2.63-5.63,4.94-6.4c1.24-0.41,2.52-0.53,3.77,0.12c0.88,0.41,1.65,1.19,2.38,2.01
	c0.15,0.18,0.15,0.41,0.15,0.65c0,3.67,0,18.19,0,21.81C94.79,55.46,94.69,55.82,94.47,56.05 M100.75,3.43
	c-1.9,0.77-3.8,1.48-5.7,2.25c-0.22,0.06-0.29,0.24-0.29,0.59c0,2.96,0,5.87,0,8.77c0,2.61,0,5.21,0,7.76c0,0.24,0.04,0.53-0.22,0.3
	c-1.97-1.48-4.09-2.01-6.25-1.78c-4.35,0.41-7.6,3.79-9.94,9.6c-1.54,3.79-2.16,8.06-2.23,12.56c-0.07,3.38,0.07,6.7,0.69,9.96
	c0.77,4.15,2.12,7.59,4.35,10.07c1.9,2.19,4.09,3.08,6.4,3.2c2.08,0.18,4.06-0.41,5.92-1.9c0.48-0.36,0.88-0.83,1.35-1.48
	c0,0.77,0,1.48,0,2.13c0,0.36,0.07,0.41,0.29,0.41c1.94,0,3.84,0,5.78,0c0.22,0,0.29-0.12,0.29-0.47c0-1.66,0-51.61,0-61.69
	C101.12,3.43,101.05,3.37,100.75,3.43"/>
<path class="st1" d="M124.44,45.74c-2.78,0-5.52,0-8.3,0c-0.26,0-0.29-0.12-0.22-0.47c0.99-4.86,4.39-21.45,4.42-21.45
	c0.15,0.77,3.88,19.38,4.31,21.51C124.77,45.68,124.7,45.74,124.44,45.74 M136.54,65.59c-0.99-4.09-2.01-8.12-3-12.21
	c-1.13-4.68-6.36-25.96-7.82-31.94c-1.28-5.27-2.6-10.61-3.88-15.88c-0.07-0.36-0.18-0.41-0.4-0.41c-0.77,0-1.5,0.06-2.27,0
	c-0.29,0-0.4,0.18-0.51,0.59c-0.66,2.73-1.32,5.39-1.97,8.12c-1.21,4.92-8.88,36.56-9.8,40.41c-0.91,3.79-1.83,7.59-2.74,11.32
	c-0.07,0.24-0.15,0.47,0.15,0.47c2.27,0,4.57,0,6.84,0c0.15,0,0.22-0.06,0.29-0.3c0.15-0.77,1.79-8.36,2.45-11.44
	c0.04-0.24,0.11-0.36,0.26-0.36c4.06,0,8.12,0,12.17,0c0.22,0,0.33,0.12,0.4,0.41c0.84,3.79,1.68,7.53,2.49,11.26
	c0.07,0.36,0.15,0.41,0.37,0.41c1.1,0,2.23,0,3.33,0c1.13,0,2.23,0,3.36,0C136.62,66.07,136.65,66.01,136.54,65.59"/>
<path class="st0" d="M34.66,50.42c-0.48,2.79-1.32,5.16-2.89,6.76c-1.06,1.07-2.27,1.36-3.51,1.3c-2.71-0.24-4.57-2.61-5.37-6.93
	c-0.33-1.72-0.51-3.44-0.55-5.27c-0.04-0.71-0.07-1.42-0.07-2.19c0.04-2.96,0.22-5.93,1.02-8.65c0.84-2.79,2.08-4.8,4.02-5.45
	c1.75-0.59,3.44-0.3,4.97,1.36c1.17,1.24,1.83,3.14,2.27,5.27c0.4,2.07,0.55,4.21,0.58,6.4C35.17,45.5,35.1,47.99,34.66,50.42
	 M41.71,43.07c-0.04-3.61-0.4-7.17-1.32-10.49c-1.32-4.8-3.47-8.18-6.54-9.96c-1.79-1.01-3.66-1.36-5.52-1.3
	c-1.65,0.06-3.25,0.47-4.79,1.48c-3.51,2.37-5.78,6.64-7.02,12.33c-0.88,4.15-0.99,8.41-0.69,12.74c0.18,2.96,0.66,5.87,1.54,8.53
	c1.21,3.79,2.96,6.76,5.41,8.53c1.9,1.36,3.88,1.9,6.03,1.9c1.21,0,2.52-0.18,3.8-0.71c1.75-0.71,3.36-2.01,4.72-3.97
	c1.83-2.61,3.03-5.87,3.73-9.66C41.6,49.47,41.75,46.27,41.71,43.07"/>
<path class="st0" d="M135.41,10.25c-0.04-1.01-0.04-2.19-0.04-3.38h-0.04c-0.15,1.07-0.37,2.19-0.55,3.2l-0.62,3.2h-0.88l-0.55-3.2
	c-0.15-0.95-0.33-2.13-0.44-3.2l0,0c-0.04,1.13-0.04,2.37-0.07,3.38l-0.11,3.14h-1.1l0.33-8.18h1.54l0.48,2.73
	c0.15,0.95,0.33,1.96,0.44,2.96h0.04c0.15-0.95,0.33-2.01,0.48-2.96l0.55-2.73h1.5l0.29,8.18h-1.13"/>
<polygon class="st0" points="126.67,5.15 126.67,6.75 128.03,6.75 128.03,13.39 129.2,13.39 129.2,6.75 130.55,6.75 130.55,5.15 "/>
</svg>
